<?xml version="1.0" encoding="UTF-8" standalone="no"?>
<!-- Generator: Adobe Illustrator 26.5.3, SVG Export Plug-In . SVG Version: 6.00 Build 0)  -->

<svg
   xmlns:dc="http://purl.org/dc/elements/1.1/"
   xmlns:cc="http://creativecommons.org/ns#"
   xmlns:rdf="http://www.w3.org/1999/02/22-rdf-syntax-ns#"
   xmlns:svg="http://www.w3.org/2000/svg"
   xmlns="http://www.w3.org/2000/svg"
   xmlns:sodipodi="http://sodipodi.sourceforge.net/DTD/sodipodi-0.dtd"
   xmlns:inkscape="http://www.inkscape.org/namespaces/inkscape"
   version="1.1"
   id="Calque_1"
   x="0px"
   y="0px"
   viewBox="0 0 595.28 671.22"
   style="enable-background:new 0 0 595.28 671.22;"
   xml:space="preserve"
   sodipodi:docname="meyer-square_color.svg"
   inkscape:version="0.92.5 (2060ec1f9f, 2020-04-08)"><metadata
   id="metadata23"><rdf:RDF><cc:Work
       rdf:about=""><dc:format>image/svg+xml</dc:format><dc:type
         rdf:resource="http://purl.org/dc/dcmitype/StillImage" /></cc:Work></rdf:RDF></metadata><defs
   id="defs130" /><sodipodi:namedview
   id="namedview128"
   pagecolor="#ffffff"
   bordercolor="#000000"
   borderopacity="0.25"
   inkscape:showpageshadow="2"
   inkscape:pageopacity="0.0"
   inkscape:pagecheckerboard="0"
   inkscape:deskcolor="#d1d1d1"
   showgrid="false"
   inkscape:zoom="1.2127171"
   inkscape:cx="21.439458"
   inkscape:cy="335.61"
   inkscape:window-width="1920"
   inkscape:window-height="997"
   inkscape:window-x="0"
   inkscape:window-y="28"
   inkscape:window-maximized="1"
   inkscape:current-layer="Calque_1" />
<style
   type="text/css"
   id="style91">
	.st0{fill:#424242;}
	.st1{fill:#7F8081;}
	.st2{fill:#BEBDBD;}
</style>
<path
   d="M289.51,270.9c0-15.45,0.45-30.92-0.1-46.35c-0.94-26.27-0.34-52.53-0.81-78.79c-0.36-20.04-0.74-40.1-1.83-60.1  c-0.72-13.18-0.69-26.54-4.83-39.37c-1.38-4.28-3.21-8.04-7.21-10.37c-2.41-1.4-2.98-3.62-2.23-5.96c0.73-2.28,3-1.29,4.54-1.16  c13.83,1.17,27.65,1.12,41.48-0.01c1.41-0.12,3.5-1.03,4.19,1c0.66,1.92,0.65,4.24-1.41,5.46c-7.91,4.65-8.85,12.91-10.25,20.57  c-2.13,11.63-2.33,23.5-2.76,35.31c-1.56,42.69-1.43,85.41-2.12,128.12c-0.55,33.63-0.06,67.26-0.56,100.89  c-0.06,3.78,1.06,4.99,4.89,4.95c17.18-0.19,34.38,0.42,51.53-0.24c19.48-0.75,38.95-0.33,58.43-0.76  c20.18-0.45,40.37-0.81,60.53-1.81c17.98-0.89,36.01-1.3,53.91-3.44c7.17-0.86,14.42-2.1,18.57-9.32c1.23-2.14,3.46-2.14,5.39-1.51  c2.28,0.75,1.34,2.9,1.22,4.5c-1.02,13.54-1,27.08-0.02,40.62c0.13,1.73,1.16,4.03-1.23,4.95c-2.37,0.91-4.53,0.28-5.91-2.14  c-2.94-5.16-8.05-6.71-13.35-7.85c-7.92-1.7-16.03-2.02-24.06-2.44c-17.13-0.89-34.27-1.61-51.42-2.17  c-30.71-0.99-61.44-1.12-92.15-1.82c-20.49-0.47-40.98-0.09-61.45-0.58c-3.87-0.09-4.9,1.21-4.88,4.96  c0.14,30.9-0.44,61.81,0.26,92.7c0.6,26.56,0.24,53.11,0.75,79.66c0.39,20.47,0.73,40.96,1.84,61.41  c0.72,13.32,0.56,26.84,4.84,39.79c1.45,4.39,3.25,8.36,7.42,10.74c2.32,1.32,2.6,3.43,2.12,5.61c-0.57,2.57-2.85,1.52-4.33,1.4  c-14.12-1.16-28.23-1.13-42.35,0.04c-1.31,0.11-3.16,0.75-3.67-1.22c-0.44-1.66-0.67-3.76,0.95-4.83  c10.22-6.75,10.61-17.78,11.62-28.06c2.47-24.98,2.33-50.11,3.07-75.19c0.75-25.12-0.04-50.23,0.8-75.33  c1.17-35.36,0.16-70.73,0.7-106.09c0.07-4.37-1.13-5.69-5.56-5.63c-17.03,0.26-34.09-0.37-51.1,0.25  c-19.91,0.73-39.82,0.36-59.72,0.78c-19.6,0.41-39.22,0.74-58.8,1.8c-19.41,1.06-38.91,1.09-58.17,4.12  c-5.84,0.92-11.21,2.85-14.38,8.47c-1.21,2.14-3.32,2.27-5.33,1.68c-2.35-0.69-1.54-2.78-1.42-4.41  c1.01-13.83,1.02-27.66-0.01-41.49c-0.11-1.49-0.89-3.46,1.06-4.19c1.91-0.72,4.22-0.81,5.43,1.3c4.05,7.05,11.09,8.6,18.11,9.36  c12.02,1.31,24.11,2.26,36.19,2.7c23.92,0.87,47.85,1.59,71.79,2.21c17.02,0.44,34.05,0.02,51.06,0.71  c21.78,0.88,43.57,0.43,65.35,0.75c4.51,0.07,5.58-1.39,5.52-5.68c-0.23-16.17-0.09-32.34-0.09-48.52  C289.53,270.9,289.52,270.9,289.51,270.9z"
   id="path93" />
<path
   class="st0"
   d="M147.14,539.85c0.14-0.03,1.02-0.1,1.84-0.35c1.67-0.51,2.9,0.06,3.56,1.56c0.73,1.67-0.87,2.2-1.78,3.01  c-0.43,0.38-0.94,0.67-1.41,1.01c-7.16,5.12-7.24,5.2-13.63-0.93c-2.11-2.02-3.56-1.98-5.25,0.22c-0.61,0.8-1.36,1.49-2.02,2.25  c-6.16,7.17-6.19,7.2-0.72,14.73c1.15,1.58,1.85,3.01,0.03,4.47c-1.81,1.45-2.48-0.42-3.44-1.32c-7.03-6.62-14.02-13.29-21.56-19.36  c-1.13-0.91-3.6-1.56-1.93-3.95c1.62-2.31,3.19-0.99,4.76,0.12c0.7,0.5,1.52,0.88,2.14,1.46c3.25,3.03,5.9,2.32,8.83-0.76  c8.13-8.55,8.22-8.46-0.61-16.25c-3.89-3.44-7.8-6.85-11.63-10.36c-1.2-1.1-3.35-1.99-2.57-4.05c0.73-1.91,2.4-3.12,4.62-3.47  c10.66-1.7,21.31-3.49,31.97-5.22c6.53-1.06,13.09-1.99,19.61-3.11c2.13-0.37,3.85-0.15,5.64,1.23c2.79,2.15,2.99,3.84,0.44,6.56  c-7.5,7.99-14.76,16.21-22,24.44c-1.11,1.26-3.78,2.26-2.48,4.43C140.98,538.56,143.3,540.21,147.14,539.85z M116.02,515.31  c4.17,3.81,7.55,6.93,10.97,10c1.08,0.97,2.39,2.12,3.75,0.66c4.62-4.97,9.12-10.05,13.67-15.09c-0.25-0.32-0.49-0.64-0.74-0.96  C134.63,511.21,125.63,512.63,116.02,515.31z"
   id="path95"
   style="fill:#0000ff;stroke:#000000;stroke-opacity:1;stroke-width:1.51181102;stroke-miterlimit:4;stroke-dasharray:none" />
<path
   class="st1"
   d="M446.2,179.5c2.56-0.08,4.15,0.29,5.63,1.42c2.36,1.8,3.04,3.34,0.66,5.9c-7.55,8.13-14.93,16.43-22.26,24.76  c-1.17,1.33-4.01,2.39-2.34,4.82c1.56,2.25,3.78,4.05,6.91,3.65c0.99-0.13,1.96-0.48,2.95-0.61c1.25-0.17,2.3,0.29,2.88,1.44  c0.73,1.44-0.42,2.06-1.31,2.78c-0.22,0.18-0.47,0.33-0.7,0.5c-7.95,6.05-8.01,6.12-15.25-0.54c-1.9-1.75-3.08-1.62-4.48,0.32  c-0.67,0.93-1.47,1.77-2.24,2.64c-6.24,7.08-6.26,7.09-0.77,14.71c1,1.39,1.79,2.65,0.2,4.14c-1.91,1.79-2.71-0.05-3.79-1.08  c-6.56-6.28-13.24-12.42-20.16-18.31c-1.44-1.22-5.18-1.93-3.05-4.99c2.11-3.04,3.93,0.23,5.79,1.05c0.78,0.34,1.44,0.95,2.14,1.46  c2.34,1.73,4.31,1.46,6.51-0.55c9.61-8.8,9.63-9.44-0.23-17.98c-3.81-3.3-7.57-6.68-11.28-10.1c-1.08-1-3-1.82-2.16-3.76  c0.69-1.6,1.99-2.74,3.91-3.06c7.8-1.31,15.57-2.76,23.37-4.04C427.08,182.46,437.03,180.94,446.2,179.5z M432.92,190.52  c-0.26-0.33-0.51-0.66-0.77-0.99c-8.04,1.53-16.08,3.02-24.1,4.64c-1,0.2-2.68,0.12-2.76,1.53c-0.04,0.74,1.01,1.64,1.73,2.31  c2.64,2.45,5.34,4.84,8.03,7.24c1.08,0.96,2.26,2.27,3.68,0.75C423.51,200.89,428.2,195.69,432.92,190.52z"
   id="path97"
   style="fill:#ff0000;fill-opacity:1;stroke:#000000;stroke-opacity:1;stroke-width:1.51181102;stroke-miterlimit:4;stroke-dasharray:none" />
<path
   d="M49.05,59.34c-0.69-3.24,0.62-4.96,2.39-6.67c2-1.94,3.36-1.92,5.27,0.26c7.42,8.45,15,16.77,22.59,25.07  c1.15,1.26,1.95,3.94,4.2,2.81c2.11-1.06,4.03-2.85,4.27-5.62c0.01-0.14,0.01-0.29,0.03-0.43c0.33-2.25-1.33-5.64,2.01-6.27  c2.74-0.51,2.77,3.13,4.21,4.75c0.28,0.32,0.44,0.74,0.66,1.11c3.24,5.61,3.24,5.61-1.71,9.52c-4.93,3.89-4.93,3.89-0.7,8.53  c0.58,0.64,1.16,1.28,1.73,1.93c5.39,6.16,5.39,6.16,12.26,1.58c0.72-0.48,1.44-0.96,2.19-1.38c1.29-0.73,2.17-0.05,2.98,0.89  c1,1.18,0.54,2.11-0.49,2.93c-8.23,6.59-16.07,13.6-23.48,21.1c-1,1.01-2,1.72-3.25,0.31c-0.99-1.12-1.3-2.22-0.21-3.44  c0.38-0.43,0.76-0.87,1.14-1.3c5.43-6.28,5.62-6.45,0.03-12.41c-7.37-7.84-4.43-8.12-13.16-0.56c-4.47,3.87-8.73,7.98-13.18,11.87  c-1.1,0.97-2.15,2.79-3.96,1.93c-1.76-0.84-2.42-2.55-2.82-4.56c-1.24-6.27-0.73-12.65-1.3-18.96  C49.77,81.17,49.56,69.92,49.05,59.34z M57.97,72.33c-0.32,9.89,0.82,18.3,1.75,26.71c0.32,2.93,1.93,1.86,3.23,0.73  c3.05-2.65,6.01-5.4,9.04-8.07c1.15-1.01,1.59-1.93,0.39-3.26C67.85,83.43,63.36,78.37,57.97,72.33z"
   id="path99"
   style="fill:#000000;fill-opacity:1;stroke:#000000;stroke-opacity:1;stroke-width:1.51181102;stroke-miterlimit:4;stroke-dasharray:none" />
<path
   class="st2"
   d="M339.77,426.29c-0.86-15.35-1.73-30.7-2.56-46.05c-0.15-2.73-0.28-5.42,2.31-7.46c2.12-1.67,3.64-1.73,5.5,0.37  c7.47,8.41,15.01,16.76,22.6,25.05c1.07,1.17,1.74,3.79,3.72,2.92c2.16-0.95,3.97-2.87,4.71-5.36c0.16-0.54,0.1-1.14,0.11-1.72  c0.03-2-1.49-4.85,1.6-5.42c2.68-0.5,3.1,2.56,4.09,4.32c3.98,7.01,4.03,7.17-2.18,12.04c-2.8,2.2-3.45,3.94-0.47,6.33  c0.89,0.72,1.61,1.65,2.39,2.5c6.36,6.83,6.37,7.14,13.28,1.88c1.45-1.11,3.2-1.93,4.6-0.16c1.72,2.17-0.56,3.01-1.79,4  c-7.41,5.99-14.47,12.36-21.21,19.1c-1.14,1.14-2.29,3.02-4.24,1.02c-1.82-1.87-0.17-3.09,0.89-4.39c0.55-0.67,1.09-1.35,1.72-1.94  c3.15-2.96,2.86-5.67,0.11-8.94c-7.6-9.05-7.48-9.11-16.07-1.11c-3.9,3.64-7.87,7.21-11.88,10.73c-1.13,0.99-2.2,2.71-4,1.94  c-1.8-0.78-2.86-2.46-3.04-4.44c-0.15-1.72-0.03-3.46-0.03-5.19C339.88,426.29,339.83,426.29,339.77,426.29z M348.44,421.41  c3.13-1.45,4.92-3.76,7.02-5.67c6.47-5.92,6.49-5.99,0.41-12.38c-3.28-3.44-5.92-7.55-10.56-10.84  C346.84,402.52,346.25,411.88,348.44,421.41z"
   id="path101"
   style="fill:#f5f500;fill-opacity:1;stroke:#000000;stroke-opacity:1;stroke-width:1.51181102;stroke-miterlimit:4;stroke-dasharray:none" />
<path
   class="st0"
   d="M490.62,138.54c10.5,11.8,1.52,28.87-12.29,31.09c-11.07,1.78-20.07-1.81-28.1-9c-3.28-2.94-4.81-6.03-1.55-10  c1.16-1.41,1.4-3.48,3.08-4.63c1.63,0.77,0.94,2.28,1.04,3.42c0.36,4,2.22,7.1,5.37,9.47c6.05,4.54,12.98,4.18,17.06-0.84  c4.4-5.42,3.86-13.66-1.4-18.38c-1.81-1.62-4.01-2.79-5.99-4.23c-1.24-0.9-3.83-0.76-3.03-3.36c0.69-2.24,2.46-2.9,4.74-2.9  c5.47,0.01,10.94,0.23,16.38-0.74c2.67-0.48,6.68,0.02,7.5-2.07c0.89-2.23-3.09-3.47-4.81-5.28c-2.08-2.19-4.5-4.05-6.7-6.13  c-2.7-2.56-5.67-3.9-9.4-2.49c-1.93,0.73-3.5,0.14-4.35-1.64c-1.02-2.14,1.08-2.7,2.25-3.52c3.06-2.15,6.09-5.52,9.38-5.83  c3.55-0.34,5.57,4.39,8.28,6.83c7.49,6.76,14.88,13.64,22.72,20c1.05,0.85,2.79,1.47,2.16,3.31c-0.51,1.49-1.94,2.04-3.39,2.39  C503.46,135.47,497.31,136.94,490.62,138.54z"
   id="path103"
   style="fill:#0000ff;stroke:#000000;stroke-opacity:1;stroke-width:1.51181102;stroke-miterlimit:4;stroke-dasharray:none" />
<path
   class="st1"
   d="M163.53,466.27c1.32,1.04,0.81,2.28,0.96,3.35c0.79,5.92,6.09,11.34,11.92,12.16  c5.79,0.82,10.26-1.48,12.44-6.39c2.63-5.94,1-12.6-4.23-16.68c-1.69-1.32-3.62-2.33-5.42-3.52c-1.1-0.72-3.13-0.78-2.53-2.86  c0.51-1.75,1.65-3.1,3.67-3.17c3.89-0.12,7.79-0.26,11.68-0.21c3.78,0.05,7.45-0.62,11.12-1.36c2.31-0.47,3.66-1.26,1.07-3.44  c-3.63-3.07-7.19-6.24-10.69-9.46c-2.55-2.35-5.41-3.27-8.74-2.22c-1.9,0.6-3.53,0.38-4.49-1.41c-1.26-2.35,1.06-2.97,2.31-3.87  c2.91-2.11,5.78-5.22,9-5.71c3.67-0.55,5.3,4.22,7.93,6.5c8.06,6.98,15.67,14.48,24.08,21.07c2.42,1.9,1.99,3.7-1.41,4.67  c-5.39,1.55-10.87,2.84-16.35,4.04c-2.59,0.57-2.97,1.18-1.42,3.58c5.17,8.02,2.28,19.85-6.04,25.02  c-13.48,8.38-30.39,2.12-38.67-8.5c-2.45-3.14,0.14-5.39,1.24-7.87C161.57,468.64,162.1,467.09,163.53,466.27z"
   id="path105"
   style="fill:#ff0000;fill-opacity:1;stroke:#000000;stroke-opacity:1;stroke-width:1.51181102;stroke-miterlimit:4;stroke-dasharray:none" />
<path
   d="M520,608.6c2.16-0.1,3.88-0.09,5.58-0.27c5.23-0.53,10.46-5.48,11.59-10.9c1.07-5.13-0.59-9.32-4.78-12.03  c-5.04-3.26-11.26-3.06-15.73,0.6c-2.35,1.93-4.39,4.17-6.01,6.77c-0.65,1.05-1.09,2.65-2.82,2.02c-1.57-0.58-2.68-1.73-2.58-3.6  c0.13-2.45,0.18-4.9,0.48-7.33c0.65-5.19,0.4-10.37,0.22-15.56c-0.04-1.07-0.13-2.54-1.42-2.9c-1.07-0.3-1.71,0.87-2.44,1.52  c-3.33,2.99-6.61,6.03-9.94,9.01c-2.77,2.47-4.48,5.31-3.35,9.16c0.55,1.87-0.13,3.11-1.79,3.87c-2.26,1.04-2.71-0.96-3.42-2.23  c-1.82-3.27-4.81-6.58-4.91-9.94c-0.11-3.71,4.79-5.16,7.48-7.59c7.6-6.87,15.4-13.52,22.59-20.84c2.83-2.88,4.5-2.4,5.24,1.8  c0.97,5.53,1.52,11.13,2.2,16.7c0.24,1.94,0.58,3.21,2.85,1.57c9.09-6.55,22.53,1.31,25.83,10.26c4.54,12.29-1.97,29.47-13.54,35.69  c-3.35,1.8-5.11-0.53-7.3-1.91C522.64,611.6,520.94,610.95,520,608.6z"
   id="path107"
   style="fill:#000000;fill-opacity:1;stroke:#000000;stroke-opacity:1;stroke-width:1.51181102;stroke-miterlimit:4;stroke-dasharray:none" />
<path
   class="st2"
   d="M231.6,288.72c10.2-0.33,14.83-3.5,17.37-10.96c1.46-4.3,0.22-7.75-2.6-10.67c-3.71-3.83-8.41-4.85-13.54-3.37  c-4.44,1.28-7.07,4.76-9.77,8.18c-0.94,1.19-1.18,3.65-3.7,2.64c-2.51-1.01-2.76-3.09-2.36-5.4c1.2-6.87,0.79-13.8,0.67-20.71  c-0.02-0.98,0.21-2.18-0.83-2.75c-1.37-0.74-2.08,0.57-2.89,1.27c-2.51,2.17-4.89,4.49-7.43,6.62c-3.65,3.08-6.75,6.32-5.78,11.72  c0.29,1.63-0.36,3.25-2.17,3.79c-1.93,0.58-2.44-1.14-3.09-2.34c-1.79-3.29-4.7-6.56-4.9-9.97c-0.22-3.93,4.84-5.14,7.51-7.58  c7.54-6.93,15.34-13.57,22.56-20.86c0.86-0.86,1.63-2.29,3.2-1.59c1.45,0.65,1.9,2,2.1,3.53c0.83,6.38,1.73,12.76,2.67,19.64  c6.91-5.24,13.63-4.88,20.11-0.7c6.38,4.12,9.18,10.08,9.31,17.9c0.18,10.44-4.33,18.21-11.67,24.94  c-3.55,3.25-6.97,3.62-10.64,0.32C234.47,291.24,232.67,290.76,231.6,288.72z"
   id="path109"
   style="fill:#f5f500;fill-opacity:1;stroke:#000000;stroke-opacity:1;stroke-width:1.51181102;stroke-miterlimit:4;stroke-dasharray:none" />
<path
   class="st1"
   d="M416.73,484.99c5.35-4.94,10.09-9.33,14.85-13.69c2.1-1.92,1.96-4.38,1.74-6.83c-0.16-1.86-0.05-3.64,2.01-4.24  c2.22-0.65,2.51,1.51,3.22,2.77c5.5,9.7,5.35,9.56-3.07,16.84c-7.74,6.69-15.16,13.76-22.73,20.66c-0.9,0.83-1.48,2.46-3.09,1.73  c-1.62-0.73-1.54-2.38-1.29-3.79c0.79-4.54,1.64-9.07,2.6-13.57c1.21-5.72,0.85-11.48,0.76-17.24c-0.04-2.36-0.78-4.54-1.79-6.63  c-2.52-5.23-7.01-7.96-11.64-7.13c-4.86,0.86-8.96,5.61-9.44,11.08c-0.18,2.01-0.09,4.04-0.16,6.06c-0.05,1.32-0.7,2.17-2.08,2.32  c-1.08,0.11-2.14-0.05-2.44-1.25c-1.84-7.51-2.16-14.9,2.57-21.58c4.65-6.57,12.83-9.83,19.65-8.06  c9.23,2.4,14.68,11.31,13.29,21.92C418.84,470.89,417.83,477.41,416.73,484.99z"
   id="path111"
   style="fill:#ff0000;fill-opacity:1;stroke:#000000;stroke-opacity:1;stroke-width:1.51181102;stroke-miterlimit:4;stroke-dasharray:none" />
<path
   class="st2"
   d="M347.06,273.71c4.72,4.17,9.4,8.4,14.2,12.48c1.86,1.58,4.15,1.91,6.54,1.19c1.77-0.54,3.62-0.68,4.55,1.22  c1.13,2.3-1.25,2.93-2.44,3.85c-8.34,6.37-8.32,6.28-16.05-0.97c-7.68-7.21-15.48-14.27-23.68-20.89c-0.95-0.76-2.52-1.3-1.99-2.96  c0.57-1.8,2.14-1.62,3.61-1.49c8.47,0.75,16.94,1.26,25.45,0.85c4.24-0.2,8.29-1.2,11.95-3.36c4.87-2.88,7.15-7.84,5.89-12.36  c-1.3-4.69-5.55-7.82-11.12-8.06c-2.16-0.09-4.32,0.04-6.49,0.07c-1.13,0.01-2.52,0.34-2.72-1.3c-0.16-1.29,0.06-2.56,1.43-3.33  c6.17-3.46,17.72-2.27,23.47,2.45c6.57,5.38,9.13,12.77,6.92,19.98c-2.19,7.16-8.7,11.99-17.54,12.36  c-6.02,0.26-12.1,0.7-18.09-0.74c-1.07-0.26-2.26-0.04-3.39-0.04C347.4,273.01,347.23,273.36,347.06,273.71z"
   id="path113"
   style="fill:#f5f500;fill-opacity:1;stroke:#000000;stroke-opacity:1;stroke-width:1.51181102;stroke-miterlimit:4;stroke-dasharray:none" />
<path
   d="M59.4,594.24c4.74,4.12,9.43,8.31,14.26,12.32c1.94,1.62,4.43,1.2,6.66,0.65c1.84-0.46,3.2-0.08,4.05,1.49  c1.02,1.88-0.82,2.52-1.85,3.33c-8.89,6.99-8.8,6.86-17.11-0.78c-7.53-6.93-15.33-13.56-22.99-20.34c-1-0.89-2.93-1.35-2.31-3.19  c0.7-2.07,2.65-2,4.39-1.79c6.57,0.79,13.14,1.71,19.78,1.6c4.34-0.08,8.64-0.67,12.76-1.99c6.9-2.21,11.45-8.15,10.29-13.12  c-1.46-6.28-7.46-10.02-15.1-9.4c-0.14,0.01-0.29,0.03-0.43,0.03c-2.03,0-5.07,2.15-5.42-1.75c-0.3-3.37,2.97-2.74,5.03-3.32  c9.14-2.58,17.11-0.87,23.48,6.49c8.67,10.02,4.12,24.66-8.7,28.1c-7.39,1.99-14.88,0.52-22.33,0.67c-1.28,0.03-2.57,0-3.85,0  C59.82,593.56,59.61,593.9,59.4,594.24z"
   id="path115"
   style="fill:#000000;fill-opacity:1;stroke:#000000;stroke-opacity:1;stroke-width:1.51181102;stroke-miterlimit:4;stroke-dasharray:none" />
<path
   class="st0"
   d="M129.39,164.2c4.74-4.35,9.12-8.3,13.42-12.33c2.1-1.97,3.39-4.29,2.43-7.35c-0.61-1.93-0.02-3.51,1.91-4.23  c2.01-0.75,2.36,1.18,3.06,2.29c6.14,9.78,6.07,9.73-2.63,16.94c-8.01,6.63-15.55,13.78-22.99,21.04c-0.88,0.86-1.53,2.49-3.09,1.71  c-1.66-0.84-1.66-2.43-1.29-4.15c1.33-6.05,2.59-12.11,3.4-18.27c0.69-5.22,0.71-10.35-0.49-15.46  c-1.54-6.54-6.64-11.13-11.81-10.75c-5.57,0.41-10.14,5.52-10.85,12.23c-0.18,1.72-0.11,3.46-0.22,5.19  c-0.07,1.16-0.7,1.84-1.93,1.89c-1.27,0.05-2.16-0.3-2.65-1.65c-2.88-7.81-0.22-18.61,6.15-24.3c5.54-4.95,12.05-6.45,18.89-3.73  c7.11,2.83,10.46,8.72,10.85,16.3c0.34,6.69-1.14,13.19-2.15,19.73C129.18,160.72,128.72,162.1,129.39,164.2z"
   id="path117"
   style="fill:#0000ff;stroke:#000000;stroke-opacity:1;stroke-width:1.51181102;stroke-miterlimit:4;stroke-dasharray:none" />
<path
   class="st0"
   d="M436.09,522.64c-1.74-0.87-3.1-1.95-1.68-3.99c4.03-5.81,8.1-11.59,12.23-17.32c1.99-2.75,3.21-0.28,4.32,0.94  c9.02,9.94,18.03,19.88,26.92,29.93c5.34,6.03,5.44,6.14,12.34,1.72c0.73-0.47,1.45-0.96,2.24-1.32c1.33-0.61,2.18,0.22,2.91,1.17  c0.85,1.11,0.19,1.85-0.65,2.54c-8.07,6.55-15.79,13.51-23.11,20.9c-0.95,0.95-1.9,1.3-2.98,0.27c-1.09-1.03-1.41-2.15-0.32-3.4  c0.19-0.22,0.34-0.47,0.55-0.67c5.77-5.68,6.44-6.82-0.82-14.54c-5.93-6.31-11.59-12.86-17.44-19.24c-4-4.37-4.54-4.32-9.2-0.65  C439.74,520.31,438.32,522.04,436.09,522.64z"
   id="path119"
   style="fill:#0000ff;stroke:#000000;stroke-opacity:1;stroke-width:1.51181102;stroke-miterlimit:4;stroke-dasharray:none" />
<path
   d="M502.21,85.22c2.2,0.43,3.74,1.82,5.26,3.07c3.08,2.54,5.56,2.15,8.16-0.79c6.88-7.77,13.85-15.48,20.9-23.1  c2.94-3.18,3.17-5.91-0.42-8.7c-1.24-0.97-2.27-2.21-3.35-3.37c-0.82-0.88-1.48-1.84-0.53-3.05c0.9-1.14,1.97-1.75,3.36-0.88  c6.01,3.73,12.17,7.17,18.47,10.38c2.69,1.37,0.83,2.81-0.27,4.05c-7.79,8.7-15.62,17.38-23.43,26.06  c-1.16,1.29-2.38,2.51-3.51,3.82c-5.48,6.35-5.47,6.35-0.33,13.11c1.05,1.38,2.4,2.75,0.58,4.49c-1.91,1.82-2.8-0.16-3.82-1.15  c-6.97-6.7-14.05-13.28-21.63-19.29c-0.86-0.68-2.1-1.3-1.56-2.75C500.47,86.14,501.27,85.52,502.21,85.22z"
   id="path121"
   style="fill:#000000;fill-opacity:1;stroke:#000000;stroke-opacity:1;stroke-width:1.51181102;stroke-miterlimit:4;stroke-dasharray:none" />
<path
   class="st2"
   d="M251.24,380.32c-0.47-2.07-1.91-3.1-2.96-4.44c-1.59-2.05-6.22-3.38-3.82-6.54c2.65-3.49,5.2,0.82,7.6,1.96  c4.15,1.97,7.97,4.67,12.14,6.6c3.66,1.7,3.12,3.31,0.87,5.77c-8.66,9.46-17.22,19.01-25.81,28.53c-0.87,0.96-1.61,2.05-2.56,2.93  c-3.37,3.14-3.23,6.12,0.24,9.06c0.33,0.28,0.65,0.59,0.88,0.95c1,1.56,3.56,2.97,1.33,5.09c-2.4,2.28-3.5-0.67-4.75-1.84  c-6.53-6.1-13.08-12.16-20-17.83c-1.19-0.98-3.48-1.72-1.97-4c1.6-2.41,3.16-0.83,4.71,0.22c6.61,4.51,7.22,4.44,12.49-1.46  c6.44-7.2,12.88-14.38,19.28-21.61C249.85,382.65,250.53,381.37,251.24,380.32z"
   id="path123"
   style="fill:#f5f500;fill-opacity:1;stroke:#000000;stroke-opacity:1;stroke-width:1.51181102;stroke-miterlimit:4;stroke-dasharray:none" />
<path
   class="st1"
   d="M207.67,214.73c-0.12,0.97-0.89,1.42-1.56,1.96c-7.78,6.23-15.15,12.9-22.12,20.02  c-1.09,1.11-2.08,2.07-3.59,0.57c-1.42-1.41-0.62-2.49,0.27-3.77c5.7-8.11,5.62-8.06-1.23-15.38c-5.81-6.21-11.52-12.52-17.16-18.89  c-2.83-3.19-5.52-3.89-8.71-0.54c-1.18,1.24-2.71,2.15-4.06,3.23c-0.94,0.75-1.83,0.71-2.73-0.06c-0.98-0.85-1.43-1.83-0.59-3.02  c4.15-5.9,8.29-11.79,12.46-17.68c1.52-2.15,2.71-0.7,3.77,0.48c8.3,9.22,16.57,18.46,24.85,27.69c0.77,0.86,1.5,1.75,2.27,2.61  c5.75,6.46,5.74,6.44,12.93,1.66c1.13-0.75,2.24-2.07,3.85-0.99C207.03,213.12,207.64,213.76,207.67,214.73z"
   id="path125"
   style="fill:#ff0000;fill-opacity:1;stroke:#000000;stroke-opacity:1;stroke-width:1.51181102;stroke-miterlimit:4;stroke-dasharray:none" />
</svg>